HIERARCHY
ROOT hip
{
	OFFSET 0.000000 0.000000 0.000000 
	CHANNELS 6 Xposition Yposition Zposition Xrotation Zrotation Yrotation
	JOINT abdomen
	{
		OFFSET 0.000000 3.402643 0.000000 
		CHANNELS 3 Xrotation Zrotation Yrotation
		JOINT chest
		{
			OFFSET 0.000000 8.438565 -0.680529 
			CHANNELS 3 Xrotation Zrotation Yrotation
			JOINT neck
			{
				OFFSET 0.000000 10.207942 -0.272212 
				CHANNELS 3 Xrotation Zrotation Yrotation
				JOINT head
				{
					OFFSET 0.000000 3.130431 0.000000 
					CHANNELS 3 Xrotation Zrotation Yrotation
					End Site
					{
						OFFSET 0.000000 3.130435 0.000000 
					}
				}
			}
			JOINT lCollar
			{
				OFFSET 3.470700 6.669187 -0.816635 
				CHANNELS 3 Yrotation Zrotation Xrotation
				JOINT lShldr
				{
					OFFSET 3.198488 0.000000 0.000000 
					CHANNELS 3 Zrotation Yrotation Xrotation
					JOINT lForeArm
					{
						OFFSET 10.139888 0.000000 0.000000 
						CHANNELS 3 Yrotation Zrotation Xrotation
						JOINT lHand
						{
							OFFSET 8.370511 0.000000 0.000000 
							CHANNELS 3 Zrotation Yrotation Xrotation
							End Site
							{
								OFFSET 4.083176 0.000000 0.000000 
							}
						}
					}
				}
			}
			JOINT rCollar
			{
				OFFSET -3.470700 6.669187 -0.816635 
				CHANNELS 3 Yrotation Zrotation Xrotation
				JOINT rShldr
				{
					OFFSET -3.198488 0.000000 0.000000 
					CHANNELS 3 Zrotation Yrotation Xrotation
					JOINT rForeArm
					{
						OFFSET -10.139888 0.000000 0.000000 
						CHANNELS 3 Yrotation Zrotation Xrotation
						JOINT rHand
						{
							OFFSET -8.370511 0.000000 0.000000 
							CHANNELS 3 Zrotation Yrotation Xrotation
							End Site
							{
								OFFSET -4.083176 0.000000 0.000000 
							}
						}
					}
				}
			}
		}
	}
	JOINT lThigh
	{
		OFFSET 5.308129 -1.633274 1.361059 
		CHANNELS 3 Xrotation Zrotation Yrotation
		JOINT lShin
		{
			OFFSET -2.041588 -20.007561 0.000000 
			CHANNELS 3 Xrotation Zrotation Yrotation
			JOINT lFoot
			{
				OFFSET 0.000000 -19.190928 -1.224953 
				CHANNELS 3 Xrotation Yrotation Zrotation
				End Site
				{
					OFFSET 0.000000 -2.449906 4.627600 
				}
			}
		}
	}
	JOINT rThigh
	{
		OFFSET -5.308129 -1.633274 1.361059 
		CHANNELS 3 Xrotation Zrotation Yrotation
		JOINT rShin
		{
			OFFSET 2.041588 -20.007561 0.000000 
			CHANNELS 3 Xrotation Zrotation Yrotation
			JOINT rFoot
			{
				OFFSET 0.000000 -19.190928 -1.224953 
				CHANNELS 3 Xrotation Yrotation Zrotation
				End Site
				{
					OFFSET 0.000000 -2.449906 4.627600 
				}
			}
		}
	}
}
MOTION
Frames: 8
Frame Time: 0.016667
-5.538107 49.781410 59.789967 5.166346 -3.276987 42.399399 28.070354 -1.405188 2.227090 -27.159708 3.648642 2.583461 -16.075588 -3.611727 -1.683118 10.220214 -6.079652 -2.170882 -1.376685 1.572500 -0.010027 -76.323463 1.961394 3.050268 -26.551058 -1.225284 -15.531065 -13.138106 17.181520 -3.952784 12.813041 3.249788 -0.010061 53.589859 54.314209 -69.085358 27.936552 2.624911 -33.225765 2.600852 -10.126063 -0.468349 -15.519629 2.821737 -8.933221 12.141584 -1.706229 -1.422597 -1.413749 -4.339175 -12.379781 1.336738 -3.862202 3.391449 17.851358 1.540208 1.773081 -22.048424 -9.116644 8.467699 
-5.080345 49.780853 60.017498 5.259832 -3.059095 42.271236 28.150507 -1.248892 2.412600 -27.271645 3.394674 2.700410 -15.872436 -4.030664 -2.036520 10.666318 -6.243504 -2.623807 -1.122801 1.445504 -0.010007 -75.986343 1.486060 3.038121 -26.740509 -1.227718 -15.560658 -12.955256 17.346497 -3.931381 12.813028 3.171662 -0.010048 51.237923 53.688251 -73.195099 27.586485 2.628155 -33.315533 2.019003 -10.647503 -0.383254 -14.992184 2.363081 -8.906930 12.456858 -1.708611 -1.429765 -2.073400 -4.077545 -12.412405 0.693520 -4.169793 3.629996 20.372295 1.451023 1.930240 -21.590620 -9.481347 8.382889 
-4.644330 49.771374 60.237503 5.403877 -2.847121 42.153522 28.250706 -1.151255 2.490713 -27.460207 3.306827 2.719897 -15.574777 -4.615365 -2.322660 11.055147 -6.182507 -3.085365 -0.888466 1.211089 -0.009969 -75.592354 1.171712 3.325982 -27.221630 -1.279591 -16.088305 -12.521531 17.154266 -3.756683 12.822779 3.083770 -0.010034 48.525196 52.650826 -77.214294 27.203659 2.646551 -33.644188 1.603389 -10.962343 -0.316083 -14.526140 1.865123 -8.868625 12.802365 -1.699249 -1.456939 -2.705761 -3.814499 -12.418342 -0.663754 -4.384367 3.901877 24.025188 1.323685 2.144755 -20.471563 -10.136029 8.326637 
-4.208372 49.761894 60.457531 5.544271 -2.627515 42.026802 28.361372 -1.043872 2.568645 -27.658049 3.218957 2.748582 -15.260166 -5.189879 -2.628535 11.450513 -6.101733 -3.536166 -0.654129 0.986440 -0.009932 -75.198853 0.844012 3.606925 -27.715290 -1.315166 -16.618429 -12.099040 16.959839 -3.584893 12.832530 2.995878 -0.010019 45.991917 51.510765 -81.050270 26.834669 2.671683 -33.970165 1.186895 -11.266980 -0.242389 -14.052865 1.386985 -8.816746 13.143323 -1.716187 -1.515732 -3.348868 -3.529051 -12.443961 -2.039105 -4.605584 4.167951 27.702051 1.186628 2.381232 -19.351099 -10.794195 8.272164 
-3.814403 49.743427 60.689362 5.713945 -2.477826 41.952057 28.453739 -0.985418 2.461246 -27.732550 3.229022 2.631581 -14.875023 -5.627766 -2.865579 11.206101 -5.816690 -3.897539 -0.693173 1.093868 -0.009950 -75.190445 0.804554 3.677596 -28.529148 -1.419584 -17.747684 -10.916203 16.083061 -3.075186 12.773930 2.956825 -0.010015 43.331017 50.509640 -85.284325 26.171068 2.561898 -32.417805 0.997633 -11.248175 -0.205799 -13.697719 0.966924 -8.861905 13.498156 -1.708214 -1.543813 -3.986551 -3.290488 -12.486589 -3.881917 -5.092081 2.668768 32.098907 1.010281 2.646604 -18.021593 -9.995925 8.805854 
-3.420491 49.724957 60.921227 5.873461 -2.327792 41.878098 28.545727 -0.926945 2.363446 -27.817411 3.239098 2.504280 -14.484688 -6.055514 -3.123150 10.956420 -5.521990 -4.248325 -0.741981 1.211064 -0.009969 -75.191803 0.765712 3.748121 -29.349644 -1.511351 -18.889782 -9.751458 15.205976 -2.589081 12.725094 2.908005 -0.010009 40.838943 49.390228 -89.359024 25.522852 2.441219 -30.855215 0.820258 -11.219314 -0.178774 -13.338090 0.546782 -8.890520 13.863892 -1.689414 -1.571014 -4.595969 -3.069259 -12.499597 -5.718511 -5.621165 1.186659 36.502831 0.804658 2.893226 -16.712681 -9.171675 9.304947 
-3.066818 49.699490 61.175900 6.039102 -2.170135 41.804096 28.685589 -0.975931 2.060747 -27.764181 3.483670 2.240501 -14.467404 -6.405579 -3.282735 10.701880 -5.179240 -4.520560 -1.132573 1.406443 -0.010000 -75.396477 0.880904 3.085586 -30.395851 -1.677310 -20.676014 -8.660780 14.727435 -2.234501 12.695773 2.761526 -0.009986 38.652954 48.263515 -92.881508 25.174404 2.287558 -28.818760 0.441519 -10.995630 -0.104855 -13.015043 0.185809 -8.922361 14.226796 -1.699045 -1.581561 -5.117491 -2.873276 -12.515821 -7.947637 -5.955812 0.440541 41.129997 0.569733 3.098914 -14.422388 -9.158219 9.687677 
-2.713178 49.674023 61.430618 6.188406 -2.019714 41.721081 28.825964 -1.024908 1.758055 -27.714174 3.718516 1.967623 -14.457330 -6.765232 -3.442458 10.453019 -4.836697 -4.783198 -1.523163 1.611588 -0.010033 -75.603233 1.003137 2.415227 -31.436684 -1.802906 -22.470589 -7.560705 14.253932 -1.880828 12.666015 2.617188 0.000000 36.625870 47.053894 -96.264908 24.831987 2.129908 -26.775417 0.061503 -10.771469 -0.022368 -12.680179 -0.175104 -8.947362 14.591865 -1.688716 -1.590328 -5.628802 -2.692244 -12.514312 -10.179398 -6.304877 -0.280179 45.755363 0.332008 3.278622 -12.150529 -9.133281 10.066839 
